<?xml version="1.0" encoding="utf-8"?>
<svg version="1.1" xmlns:xlink="http://www.w3.org/1999/xlink" width="86px" height="36px" xmlns="http://www.w3.org/2000/svg">
  <defs>
    <mask fill="white" id="clip1097">
      <path d="M 16.365671641791 25.4117647058824  L 0.641791044776119 35.8676470588235  L 16.365671641791 35.8676470588235  L 42.0373134328358 20.5147058823529  L 50.7014925373134 15.75  L 59.6865671641791 11.1176470588235  L 70.9179104477612 6.35294117647059  L 77.9776119402985 3.44117647058824  L 86 0.794117647058824  L 80.8656716417911 0.264705882352941  L 74.4477611940299 0.264705882352941  L 68.9925373134328 0.794117647058824  L 64.1791044776119 2.11764705882353  L 57.7611940298507 4.23529411764706  L 50.7014925373134 6.35294117647059  L 45.2462686567164 9.26470588235294  L 32.7313432835821 15.75  L 16.365671641791 25.4117647058824  Z " fill-rule="evenodd" />
    </mask>
  </defs>
  <g transform="matrix(1 0 0 1 -66 -300 )">
    <path d="M 16.365671641791 25.4117647058824  L 0.641791044776119 35.8676470588235  L 16.365671641791 35.8676470588235  L 42.0373134328358 20.5147058823529  L 50.7014925373134 15.75  L 59.6865671641791 11.1176470588235  L 70.9179104477612 6.35294117647059  L 77.9776119402985 3.44117647058824  L 86 0.794117647058824  L 80.8656716417911 0.264705882352941  L 74.4477611940299 0.264705882352941  L 68.9925373134328 0.794117647058824  L 64.1791044776119 2.11764705882353  L 57.7611940298507 4.23529411764706  L 50.7014925373134 6.35294117647059  L 45.2462686567164 9.26470588235294  L 32.7313432835821 15.75  L 16.365671641791 25.4117647058824  Z " fill-rule="nonzero" fill="#30172c" stroke="none" transform="matrix(1 0 0 1 66 300 )" />
    <path d="M 16.365671641791 25.4117647058824  L 0.641791044776119 35.8676470588235  L 16.365671641791 35.8676470588235  L 42.0373134328358 20.5147058823529  L 50.7014925373134 15.75  L 59.6865671641791 11.1176470588235  L 70.9179104477612 6.35294117647059  L 77.9776119402985 3.44117647058824  L 86 0.794117647058824  L 80.8656716417911 0.264705882352941  L 74.4477611940299 0.264705882352941  L 68.9925373134328 0.794117647058824  L 64.1791044776119 2.11764705882353  L 57.7611940298507 4.23529411764706  L 50.7014925373134 6.35294117647059  L 45.2462686567164 9.26470588235294  L 32.7313432835821 15.75  L 16.365671641791 25.4117647058824  Z " stroke-width="2" stroke="#30172c" fill="none" transform="matrix(1 0 0 1 66 300 )" mask="url(#clip1097)" />
  </g>
</svg>