<?xml version="1.0" encoding="utf-8"?>
<svg version="1.1" xmlns:xlink="http://www.w3.org/1999/xlink" width="54px" height="10px" xmlns="http://www.w3.org/2000/svg">
  <defs>
    <mask fill="white" id="clip853">
      <path d="M 5.78571428571429 1.17647058823529  L 0.964285714285714 0.441176470588235  L 5.78571428571429 0.441176470588235  L 10.6071428571429 0.441176470588235  L 16.3928571428571 0.441176470588235  L 23.7857142857143 1.17647058823529  L 30.2142857142857 2.20588235294118  L 35.3571428571429 3.52941176470588  L 42.1071428571429 5.14705882352941  L 46.2857142857143 6.17647058823529  L 50.4642857142857 7.35294117647059  L 54 8.97058823529412  L 50.4642857142857 9.85294117647059  L 48.2142857142857 9.85294117647059  L 46.2857142857143 9.85294117647059  L 42.1071428571429 9.85294117647059  L 37.6071428571429 8.97058823529412  L 33.75 8.97058823529412  L 30.2142857142857 7.35294117647059  L 23.7857142857143 6.17647058823529  L 21.2142857142857 5.14705882352941  L 16.3928571428571 3.52941176470588  L 13.1785714285714 3.52941176470588  L 5.78571428571429 1.17647058823529  Z " fill-rule="evenodd" />
    </mask>
  </defs>
  <g transform="matrix(1 0 0 1 -149 -300 )">
    <path d="M 5.78571428571429 1.17647058823529  L 0.964285714285714 0.441176470588235  L 5.78571428571429 0.441176470588235  L 10.6071428571429 0.441176470588235  L 16.3928571428571 0.441176470588235  L 23.7857142857143 1.17647058823529  L 30.2142857142857 2.20588235294118  L 35.3571428571429 3.52941176470588  L 42.1071428571429 5.14705882352941  L 46.2857142857143 6.17647058823529  L 50.4642857142857 7.35294117647059  L 54 8.97058823529412  L 50.4642857142857 9.85294117647059  L 48.2142857142857 9.85294117647059  L 46.2857142857143 9.85294117647059  L 42.1071428571429 9.85294117647059  L 37.6071428571429 8.97058823529412  L 33.75 8.97058823529412  L 30.2142857142857 7.35294117647059  L 23.7857142857143 6.17647058823529  L 21.2142857142857 5.14705882352941  L 16.3928571428571 3.52941176470588  L 13.1785714285714 3.52941176470588  L 5.78571428571429 1.17647058823529  Z " fill-rule="nonzero" fill="#30172c" stroke="none" transform="matrix(1 0 0 1 149 300 )" />
    <path d="M 5.78571428571429 1.17647058823529  L 0.964285714285714 0.441176470588235  L 5.78571428571429 0.441176470588235  L 10.6071428571429 0.441176470588235  L 16.3928571428571 0.441176470588235  L 23.7857142857143 1.17647058823529  L 30.2142857142857 2.20588235294118  L 35.3571428571429 3.52941176470588  L 42.1071428571429 5.14705882352941  L 46.2857142857143 6.17647058823529  L 50.4642857142857 7.35294117647059  L 54 8.97058823529412  L 50.4642857142857 9.85294117647059  L 48.2142857142857 9.85294117647059  L 46.2857142857143 9.85294117647059  L 42.1071428571429 9.85294117647059  L 37.6071428571429 8.97058823529412  L 33.75 8.97058823529412  L 30.2142857142857 7.35294117647059  L 23.7857142857143 6.17647058823529  L 21.2142857142857 5.14705882352941  L 16.3928571428571 3.52941176470588  L 13.1785714285714 3.52941176470588  L 5.78571428571429 1.17647058823529  Z " stroke-width="2" stroke="#30172c" fill="none" transform="matrix(1 0 0 1 149 300 )" mask="url(#clip853)" />
  </g>
</svg>