<?xml version="1.0" encoding="utf-8"?>
<svg version="1.1" xmlns:xlink="http://www.w3.org/1999/xlink" width="78px" height="44px" xmlns="http://www.w3.org/2000/svg">
  <defs>
    <mask fill="white" id="clip854">
      <path d="M 4.47540983606557 41.7738095238095  L 0.959016393442623 42.9523809523809  L 7.67213114754098 43.6071428571429  L 12.1475409836066 43.6071428571429  L 16.3032786885246 43.6071428571429  L 19.8196721311475 42.9523809523809  L 23.0163934426229 41.7738095238095  L 28.4508196721311 38.7619047619048  L 56.9016393442623 14.0119047619048  L 61.3770491803279 10.0833333333333  L 67.7704918032787 6.28571428571429  L 72.2459016393443 3.53571428571429  L 77.3606557377049 0.916666666666667  L 72.2459016393443 0.261904761904762  L 69.6885245901639 0.261904761904762  L 66.172131147541 0.261904761904762  L 61.3770491803279 0.916666666666667  L 56.9016393442623 1.96428571428571  L 50.5081967213115 4.71428571428571  L 45.3934426229508 7.20238095238095  L 35.8032786885246 15.452380952381  L 7.67213114754098 40.2023809523809  L 4.47540983606557 41.7738095238095  Z " fill-rule="evenodd" />
    </mask>
  </defs>
  <g transform="matrix(1 0 0 1 -202 -265 )">
    <path d="M 4.47540983606557 41.7738095238095  L 0.959016393442623 42.9523809523809  L 7.67213114754098 43.6071428571429  L 12.1475409836066 43.6071428571429  L 16.3032786885246 43.6071428571429  L 19.8196721311475 42.9523809523809  L 23.0163934426229 41.7738095238095  L 28.4508196721311 38.7619047619048  L 56.9016393442623 14.0119047619048  L 61.3770491803279 10.0833333333333  L 67.7704918032787 6.28571428571429  L 72.2459016393443 3.53571428571429  L 77.3606557377049 0.916666666666667  L 72.2459016393443 0.261904761904762  L 69.6885245901639 0.261904761904762  L 66.172131147541 0.261904761904762  L 61.3770491803279 0.916666666666667  L 56.9016393442623 1.96428571428571  L 50.5081967213115 4.71428571428571  L 45.3934426229508 7.20238095238095  L 35.8032786885246 15.452380952381  L 7.67213114754098 40.2023809523809  L 4.47540983606557 41.7738095238095  Z " fill-rule="nonzero" fill="#30172c" stroke="none" transform="matrix(1 0 0 1 202 265 )" />
    <path d="M 4.47540983606557 41.7738095238095  L 0.959016393442623 42.9523809523809  L 7.67213114754098 43.6071428571429  L 12.1475409836066 43.6071428571429  L 16.3032786885246 43.6071428571429  L 19.8196721311475 42.9523809523809  L 23.0163934426229 41.7738095238095  L 28.4508196721311 38.7619047619048  L 56.9016393442623 14.0119047619048  L 61.3770491803279 10.0833333333333  L 67.7704918032787 6.28571428571429  L 72.2459016393443 3.53571428571429  L 77.3606557377049 0.916666666666667  L 72.2459016393443 0.261904761904762  L 69.6885245901639 0.261904761904762  L 66.172131147541 0.261904761904762  L 61.3770491803279 0.916666666666667  L 56.9016393442623 1.96428571428571  L 50.5081967213115 4.71428571428571  L 45.3934426229508 7.20238095238095  L 35.8032786885246 15.452380952381  L 7.67213114754098 40.2023809523809  L 4.47540983606557 41.7738095238095  Z " stroke-width="2" stroke="#30172c" fill="none" transform="matrix(1 0 0 1 202 265 )" mask="url(#clip854)" />
  </g>
</svg>