<?xml version="1.0" encoding="utf-8"?>
<svg version="1.1" xmlns:xlink="http://www.w3.org/1999/xlink" width="67px" height="18px" xmlns="http://www.w3.org/2000/svg">
  <defs>
    <mask fill="white" id="clip1100">
      <path d="M 8.16025641025639 1.94117647058822  L 0.429487179487155 0.176470588235314  L 8.16025641025639 0.176470588235314  L 12.4551282051282 0.176470588235314  L 19.7564102564102 0.88235294117645  L 24.0512820512821 1.94117647058822  L 30.0641025641025 3.52941176470586  L 36.9358974358975 6.17647058823527  L 42.0897435897436 8.2941176470588  L 45.9551282051282 10.2352941176471  L 50.25 12  L 54.974358974359 13.9411764705883  L 60.9871794871795 16.4117647058824  L 63.9935897435898 17.2941176470588  L 66.5705128205128 18  L 63.9935897435898 18  L 59.2692307692308 18  L 54.974358974359 18  L 50.25 17.2941176470588  L 38.6538461538462 13.9411764705883  L 16.4278846153846 4.23529411764706  L 12.4551282051282 2.91176470588235  L 8.16025641025639 1.94117647058822  Z " fill-rule="evenodd" />
    </mask>
  </defs>
  <g transform="matrix(1 0 0 1 -277 -265 )">
    <path d="M 8.16025641025639 1.94117647058822  L 0.429487179487155 0.176470588235314  L 8.16025641025639 0.176470588235314  L 12.4551282051282 0.176470588235314  L 19.7564102564102 0.88235294117645  L 24.0512820512821 1.94117647058822  L 30.0641025641025 3.52941176470586  L 36.9358974358975 6.17647058823527  L 42.0897435897436 8.2941176470588  L 45.9551282051282 10.2352941176471  L 50.25 12  L 54.974358974359 13.9411764705883  L 60.9871794871795 16.4117647058824  L 63.9935897435898 17.2941176470588  L 66.5705128205128 18  L 63.9935897435898 18  L 59.2692307692308 18  L 54.974358974359 18  L 50.25 17.2941176470588  L 38.6538461538462 13.9411764705883  L 16.4278846153846 4.23529411764706  L 12.4551282051282 2.91176470588235  L 8.16025641025639 1.94117647058822  Z " fill-rule="nonzero" fill="#30172c" stroke="none" transform="matrix(1 0 0 1 277 265 )" />
    <path d="M 8.16025641025639 1.94117647058822  L 0.429487179487155 0.176470588235314  L 8.16025641025639 0.176470588235314  L 12.4551282051282 0.176470588235314  L 19.7564102564102 0.88235294117645  L 24.0512820512821 1.94117647058822  L 30.0641025641025 3.52941176470586  L 36.9358974358975 6.17647058823527  L 42.0897435897436 8.2941176470588  L 45.9551282051282 10.2352941176471  L 50.25 12  L 54.974358974359 13.9411764705883  L 60.9871794871795 16.4117647058824  L 63.9935897435898 17.2941176470588  L 66.5705128205128 18  L 63.9935897435898 18  L 59.2692307692308 18  L 54.974358974359 18  L 50.25 17.2941176470588  L 38.6538461538462 13.9411764705883  L 16.4278846153846 4.23529411764706  L 12.4551282051282 2.91176470588235  L 8.16025641025639 1.94117647058822  Z " stroke-width="2" stroke="#30172c" fill="none" transform="matrix(1 0 0 1 277 265 )" mask="url(#clip1100)" />
  </g>
</svg>