<?xml version="1.0" encoding="utf-8"?>
<svg version="1.1" xmlns:xlink="http://www.w3.org/1999/xlink" width="68px" height="11px" xmlns="http://www.w3.org/2000/svg">
  <defs>
    <mask fill="white" id="clip856">
      <path d="M 11.2264150943396 8.97368421052632  L 0.641509433962264 9.69736842105263  L 8.0188679245283 10.7105263157895  L 14.1132075471698 10.7105263157895  L 20.8490566037736 10.7105263157895  L 28.8679245283019 8.97368421052632  L 35.2830188679245 7.23684210526316  L 42.0188679245283 5.21052631578947  L 52.2830188679245 2.75  L 57.7358490566038 2.02631578947368  L 65.4339622641509 1.01315789473684  L 67.6792452830189 0.289473684210526  L 61.5849056603774 0.289473684210526  L 54.5283018867925 0.289473684210526  L 47.1509433962264 1.01315789473684  L 35.2830188679245 2.75  L 25.9811320754717 5.21052631578947  L 20.8490566037736 7.23684210526316  L 11.2264150943396 8.97368421052632  Z " fill-rule="evenodd" />
    </mask>
  </defs>
  <g transform="matrix(1 0 0 1 -341 -275 )">
    <path d="M 11.2264150943396 8.97368421052632  L 0.641509433962264 9.69736842105263  L 8.0188679245283 10.7105263157895  L 14.1132075471698 10.7105263157895  L 20.8490566037736 10.7105263157895  L 28.8679245283019 8.97368421052632  L 35.2830188679245 7.23684210526316  L 42.0188679245283 5.21052631578947  L 52.2830188679245 2.75  L 57.7358490566038 2.02631578947368  L 65.4339622641509 1.01315789473684  L 67.6792452830189 0.289473684210526  L 61.5849056603774 0.289473684210526  L 54.5283018867925 0.289473684210526  L 47.1509433962264 1.01315789473684  L 35.2830188679245 2.75  L 25.9811320754717 5.21052631578947  L 20.8490566037736 7.23684210526316  L 11.2264150943396 8.97368421052632  Z " fill-rule="nonzero" fill="#30172c" stroke="none" transform="matrix(1 0 0 1 341 275 )" />
    <path d="M 11.2264150943396 8.97368421052632  L 0.641509433962264 9.69736842105263  L 8.0188679245283 10.7105263157895  L 14.1132075471698 10.7105263157895  L 20.8490566037736 10.7105263157895  L 28.8679245283019 8.97368421052632  L 35.2830188679245 7.23684210526316  L 42.0188679245283 5.21052631578947  L 52.2830188679245 2.75  L 57.7358490566038 2.02631578947368  L 65.4339622641509 1.01315789473684  L 67.6792452830189 0.289473684210526  L 61.5849056603774 0.289473684210526  L 54.5283018867925 0.289473684210526  L 47.1509433962264 1.01315789473684  L 35.2830188679245 2.75  L 25.9811320754717 5.21052631578947  L 20.8490566037736 7.23684210526316  L 11.2264150943396 8.97368421052632  Z " stroke-width="2" stroke="#30172c" fill="none" transform="matrix(1 0 0 1 341 275 )" mask="url(#clip856)" />
  </g>
</svg>