<?xml version="1.0" encoding="utf-8"?>
<svg version="1.1" xmlns:xlink="http://www.w3.org/1999/xlink" width="79px" height="27px" xmlns="http://www.w3.org/2000/svg">
  <defs>
    <mask fill="white" id="clip857">
      <path d="M 8.91935483870968 2.38235294117647  L 0 0.794117647058823  L 8.91935483870968 0.132352941176471  L 12.741935483871 0.132352941176471  L 18.1572580645161 0.132352941176471  L 23.5725806451613 0.794117647058823  L 28.6693548387097 2.38235294117647  L 33.7661290322581 4.36764705882353  L 38.8629032258065 7.14705882352941  L 45.2338709677419 10.8529411764706  L 52.8790322580645 15.6176470588235  L 60.5241935483871 20.9117647058824  L 64.9838709677419 22.1029411764706  L 73.9032258064516 24.75  L 78.6814516129032 25.8088235294118  L 73.9032258064516 26.7352941176471  L 68.1693548387097 26.7352941176471  L 60.5241935483871 26.7352941176471  L 56.0645161290323 26.7352941176471  L 49.0564516129032 23.9558823529412  L 40.4556451612903 20.25  L 32.1733870967742 15.6176470588235  L 26.4395161290323 10.8529411764706  L 20.7056451612903 7.14705882352941  L 12.741935483871 3.17647058823529  L 8.91935483870968 2.38235294117647  Z " fill-rule="evenodd" />
    </mask>
  </defs>
  <g transform="matrix(1 0 0 1 -407 -274 )">
    <path d="M 8.91935483870968 2.38235294117647  L 0 0.794117647058823  L 8.91935483870968 0.132352941176471  L 12.741935483871 0.132352941176471  L 18.1572580645161 0.132352941176471  L 23.5725806451613 0.794117647058823  L 28.6693548387097 2.38235294117647  L 33.7661290322581 4.36764705882353  L 38.8629032258065 7.14705882352941  L 45.2338709677419 10.8529411764706  L 52.8790322580645 15.6176470588235  L 60.5241935483871 20.9117647058824  L 64.9838709677419 22.1029411764706  L 73.9032258064516 24.75  L 78.6814516129032 25.8088235294118  L 73.9032258064516 26.7352941176471  L 68.1693548387097 26.7352941176471  L 60.5241935483871 26.7352941176471  L 56.0645161290323 26.7352941176471  L 49.0564516129032 23.9558823529412  L 40.4556451612903 20.25  L 32.1733870967742 15.6176470588235  L 26.4395161290323 10.8529411764706  L 20.7056451612903 7.14705882352941  L 12.741935483871 3.17647058823529  L 8.91935483870968 2.38235294117647  Z " fill-rule="nonzero" fill="#30172c" stroke="none" transform="matrix(1 0 0 1 407 274 )" />
    <path d="M 8.91935483870968 2.38235294117647  L 0 0.794117647058823  L 8.91935483870968 0.132352941176471  L 12.741935483871 0.132352941176471  L 18.1572580645161 0.132352941176471  L 23.5725806451613 0.794117647058823  L 28.6693548387097 2.38235294117647  L 33.7661290322581 4.36764705882353  L 38.8629032258065 7.14705882352941  L 45.2338709677419 10.8529411764706  L 52.8790322580645 15.6176470588235  L 60.5241935483871 20.9117647058824  L 64.9838709677419 22.1029411764706  L 73.9032258064516 24.75  L 78.6814516129032 25.8088235294118  L 73.9032258064516 26.7352941176471  L 68.1693548387097 26.7352941176471  L 60.5241935483871 26.7352941176471  L 56.0645161290323 26.7352941176471  L 49.0564516129032 23.9558823529412  L 40.4556451612903 20.25  L 32.1733870967742 15.6176470588235  L 26.4395161290323 10.8529411764706  L 20.7056451612903 7.14705882352941  L 12.741935483871 3.17647058823529  L 8.91935483870968 2.38235294117647  Z " stroke-width="2" stroke="#30172c" fill="none" transform="matrix(1 0 0 1 407 274 )" mask="url(#clip857)" />
  </g>
</svg>