<?xml version="1.0" encoding="utf-8"?>
<svg version="1.1" xmlns:xlink="http://www.w3.org/1999/xlink" width="411px" height="72px" xmlns="http://www.w3.org/2000/svg">
  <g transform="matrix(1 0 0 1 -66 -265 )">
    <path d="M 0.319314641744548 70.7350746268657  L 20.1168224299065 57.7537313432836  C 20.1168224299065 57.7537313432836  50.0655198694754 37.1867879682323  72.1651090342679 35.3675373134328  C 88.7587398454166 34.0015402583032  105.054517133956 39.7388059701493  105.054517133956 39.7388059701493  C 105.054517133956 39.7388059701493  121.709178502255 44.808364024239  134.431464174455 43.8451492537313  C 145.639693635062 42.9965649312391  153.909657320872 32.7182835820896  153.909657320872 32.7182835820896  L 176.90031152648 11.3917910447761  C 176.90031152648 11.3917910447761  186.690147259871 1.1843411580921  203.084112149533 0.264925373134328  C 219.419678083685 -0.651215247951708  235.334890965732 8.08022388059701  235.334890965732 8.08022388059701  L 248.107476635514 13.2462686567164  C 248.107476635514 13.2462686567164  256.457841575754 18.1007298979867  268.543613707165 18.8097014925373  C 282.274522762038 19.6151795688582  299.836448598131 14.7033582089552  299.836448598131 14.7033582089552  L 306.542056074766 13.2462686567164  C 306.542056074766 13.2462686567164  328.433662914402 7.82266934448815  343.582554517134 9.93470149253731  C 360.381848432014 12.2768298635896  368.169781931464 20.7966417910448  368.169781931464 20.7966417910448  L 376.791277258567 26.4925373134328  L 379.665109034268 28.214552238806  L 382.219626168224 29.5391791044776  L 385.41277258567 31.2611940298507  L 388.92523364486 32.7182835820896  L 392.757009345794 33.910447761194  L 397.546728971963 35.3675373134328  L 401.378504672897 36.0298507462687  L 405.848909657321 36.0298507462687  L 409.042056074766 36.0298507462687  " stroke-width="1" stroke="#dc3c5f" fill="none" transform="matrix(1 0 0 1 66 265 )" />
  </g>
</svg>