<?xml version="1.0" encoding="utf-8"?>
<svg version="1.1" xmlns:xlink="http://www.w3.org/1999/xlink" width="30px" height="35px" xmlns="http://www.w3.org/2000/svg">
  <defs>
    <mask fill="white" id="clip1103">
      <path d="M 29.827806122449 8.94132653061206  L 14.8405612244898 0.172193877550853  L 0.172193877551024 8.94132653061206  L 0.172193877551024 26.3201530612241  L 14.8405612244898 34.7704081632655  L 29.827806122449 26.3201530612241  L 29.827806122449 8.94132653061206  Z " fill-rule="evenodd" />
    </mask>
  </defs>
  <g transform="matrix(1 0 0 1 -20 -845 )">
    <path d="M 29.827806122449 8.94132653061206  L 14.8405612244898 0.172193877550853  L 0.172193877551024 8.94132653061206  L 0.172193877551024 26.3201530612241  L 14.8405612244898 34.7704081632655  L 29.827806122449 26.3201530612241  L 29.827806122449 8.94132653061206  Z " fill-rule="nonzero" fill="#003366" stroke="none" transform="matrix(1 0 0 1 20 845 )" />
    <path d="M 29.827806122449 8.94132653061206  L 14.8405612244898 0.172193877550853  L 0.172193877551024 8.94132653061206  L 0.172193877551024 26.3201530612241  L 14.8405612244898 34.7704081632655  L 29.827806122449 26.3201530612241  L 29.827806122449 8.94132653061206  Z " stroke-width="4" stroke="#184449" fill="none" transform="matrix(1 0 0 1 20 845 )" mask="url(#clip1103)" />
  </g>
</svg>