<?xml version="1.0" encoding="utf-8"?>
<svg version="1.1" xmlns:xlink="http://www.w3.org/1999/xlink" width="22px" height="26px" xmlns="http://www.w3.org/2000/svg">
  <defs>
    <mask fill="white" id="clip859">
      <path d="M 21.873724489796 6.55697278911566  L 10.8830782312925 0.126275510204323  L 0.126275510204039 6.55697278911566  L 0.126275510204039 19.3014455782313  L 10.8830782312925 25.4982993197282  L 21.873724489796 19.3014455782313  L 21.873724489796 6.55697278911566  Z " fill-rule="evenodd" />
    </mask>
  </defs>
  <g transform="matrix(1 0 0 1 -24 -850 )">
    <path d="M 21.873724489796 6.55697278911566  L 10.8830782312925 0.126275510204323  L 0.126275510204039 6.55697278911566  L 0.126275510204039 19.3014455782313  L 10.8830782312925 25.4982993197282  L 21.873724489796 19.3014455782313  L 21.873724489796 6.55697278911566  Z " fill-rule="nonzero" fill="#003366" stroke="none" transform="matrix(1 0 0 1 24 850 )" />
    <path d="M 21.873724489796 6.55697278911566  L 10.8830782312925 0.126275510204323  L 0.126275510204039 6.55697278911566  L 0.126275510204039 19.3014455782313  L 10.8830782312925 25.4982993197282  L 21.873724489796 19.3014455782313  L 21.873724489796 6.55697278911566  Z " stroke-width="2" stroke="#184449" fill="none" transform="matrix(1 0 0 1 24 850 )" mask="url(#clip859)" />
  </g>
</svg>