<?xml version="1.0" encoding="utf-8"?>
<svg version="1.1" xmlns:xlink="http://www.w3.org/1999/xlink" width="607px" height="154px" xmlns="http://www.w3.org/2000/svg">
  <defs>
    <linearGradient gradientUnits="userSpaceOnUse" x1="303" y1="0" x2="303" y2="153" id="LinearGradient1105">
      <stop id="Stop1106" stop-color="#e87e7e" offset="0" />
      <stop id="Stop1107" stop-color="#30132a" offset="1" />
    </linearGradient>
  </defs>
  <g transform="matrix(1 0 0 1 -657 -835 )">
    <path d="M 0 79.8838435765967  L 47.7908950071215 58.8864309220166  C 47.7908950071215 58.8864309220166  67.3483573414157 49.2576860804444  97.0989612843106 41.6385562414689  C 141.883714171417 30.1691807723771  182.819138043116 26.6404043453403  182.819138043116 26.6404043453403  L 202.542364553992 22.8908663713083  L 219.231248524733 18.0164670050664  L 238.195889400575 11.2672986518086  C 238.195889400575 11.2672986518086  266.014569943195 -0.531873147071007  300.399911473336 0.0186847297122699  C 329.668968676913 0.487323669224353  351.983734655626 11.2672986518086  351.983734655626 11.2672986518086  C 351.983734655626 11.2672986518086  371.601953493056 24.826826687058  400.533215297781 26.6404043453403  C 428.579549989013 28.3985096895193  453.634209750139 18.0164670050664  453.634209750139 18.0164670050664  C 453.634209750139 18.0164670050664  473.986236808053 11.2814457592945  499.907933487194 11.2672986518086  C 534.730886074122 11.2482935666352  562.111955559955 20.2661897894858  562.111955559955 20.2661897894858  L 576.525082625595 22.8908663713083  L 596.24830913647 24.0157277635178  L 606.5 24.0157277635178  L 606.5 153.5  L 2.42634176835188 153.5  L 0 79.8838435765967  Z " fill-rule="nonzero" fill="url(#LinearGradient1105)" stroke="none" transform="matrix(1 0 0 1 657 835 )" />
  </g>
</svg>