<?xml version="1.0" encoding="utf-8"?>
<svg version="1.1" xmlns:xlink="http://www.w3.org/1999/xlink" width="600px" height="80px" xmlns="http://www.w3.org/2000/svg">
  <g transform="matrix(1 0 0 1 -660 -837 )">
    <path d="M 0 79  L 47.6076534903278 58.2349050140373  C 47.6076534903278 58.2349050140373  67.0901279202895 48.7126936578094  96.7266610597138 41.1778627041394  C 141.339698685011 29.8353856588348  182.118166526493 26.3456519998804  182.118166526493 26.3456519998804  L 201.765769554247 22.6375993238156  L 218.390664423886 17.8171308449314  L 237.282590412111 11.1426360280149  C 237.282590412111 11.1426360280149  264.994607599357 -0.525988444438259  299.24810765349 0.018477999820563  C 328.404940416904 0.481931866884006  350.634146341464 11.1426360280149  350.634146341464 11.1426360280149  C 350.634146341464 11.1426360280149  370.177144319857 24.5521399630324  398.99747687132 26.3456519998804  C 426.936275327699 28.0843054743713  451.894869638352 17.8171308449314  451.894869638352 17.8171308449314  C 451.894869638352 17.8171308449314  472.168862244152 11.1566266103573  497.991169049622 11.1426360280149  C 532.680602256963 11.1238412171811  559.956686291001 20.0419624505703  559.956686291001 20.0419624505703  L 574.314550042052 22.6375993238156  L 593.962153069807 23.7500151266351  L 599 23.7500151266351  " stroke-width="1" stroke="#de3f45" fill="none" transform="matrix(1 0 0 1 660 837 )" />
  </g>
</svg>