<?xml version="1.0" encoding="utf-8"?>
<svg version="1.1" xmlns:xlink="http://www.w3.org/1999/xlink" width="12px" height="11px" xmlns="http://www.w3.org/2000/svg">
  <g transform="matrix(1 0 0 1 -645 -926 )">
    <path d="M 651 926  C 654.36 926  657 928.42  657 931.5  C 657 934.58  654.36 937  651 937  C 647.64 937  645 934.58  645 931.5  C 645 928.42  647.64 926  651 926  Z " fill-rule="nonzero" fill="#06bdd2" stroke="none" />
    <path d="M 651 926.5  C 654.08 926.5  656.5 928.7  656.5 931.5  C 656.5 934.3  654.08 936.5  651 936.5  C 647.92 936.5  645.5 934.3  645.5 931.5  C 645.5 928.7  647.92 926.5  651 926.5  Z " stroke-width="1" stroke="#ffffff" fill="none" />
  </g>
</svg>