<?xml version="1.0" encoding="utf-8"?>
<svg version="1.1" xmlns:xlink="http://www.w3.org/1999/xlink" width="610px" height="157px" xmlns="http://www.w3.org/2000/svg">
  <defs>
    <linearGradient gradientUnits="userSpaceOnUse" x1="304.5" y1="0" x2="304.5" y2="156" id="LinearGradient863">
      <stop id="Stop864" stop-color="#33ccff" offset="0" />
      <stop id="Stop865" stop-color="#040b27" offset="0.89" />
      <stop id="Stop866" stop-color="#040b27" offset="1" />
    </linearGradient>
  </defs>
  <g transform="matrix(1 0 0 1 -654 -887 )">
    <path d="M 3.05089669108364 43.2148477974907  L 19.8298777498624 48.8029746678559  L 38.8969016802926 54.3911015382211  L 58.7266065679401 58.8616030345131  L 73.9802257122843 61.0968537826592  L 83.8950781561079 61.0968537826592  L 102.199421129321 58.8616030345131  L 112.876954530362 56.6263522863671  L 128.130573674706 54.3911015382211  L 144.146873776268 52.9009343727903  L 152.536364305657 53.5  L 167.027302492784 53.5  L 180.755559722694 54.3911015382211  L 191.433093123735 56.6263522863671  L 204.398669396428 58.8616030345131  L 226.516417155726 65.9398970703091  L 241.770036300071 71.9005657320318  L 253.972931615546 75.6259836456087  L 263.88778405937 78.2337761851123  L 281.429446075366 81.5866523073315  L 293.632341390841 83.5  L 308.885960535185 83.5  L 342.443922652742 79.3514015591854  L 385.154056256906 71.9005657320318  L 423.288104117767 61.0968537826592  L 448.456575705935 52.9009343727903  L 462.184832935845 48.8029746678559  L 481.251856866275 44.7050149629213  L 497.268156967837 43.2148477974907  L 514.809818983832 41.7246806320599  L 530.063438128177 38.7443463011985  L 547.605100144172 31.6660522654026  L 562.858719288517 22.3525074814607  L 575.824295561209 13.7840462802341  L 588.789871833902 4.47050149629227  L 601.755448106594 0  L 609.5 0  L 609.5 156.5  L 1.15165770822304 156.5  L 3.05089669108364 43.2148477974907  Z " fill-rule="nonzero" fill="url(#LinearGradient863)" stroke="none" transform="matrix(1 0 0 1 654 887 )" />
  </g>
</svg>