<?xml version="1.0" encoding="utf-8"?>
<svg version="1.1" xmlns:xlink="http://www.w3.org/1999/xlink" width="605px" height="84px" xmlns="http://www.w3.org/2000/svg">
  <g transform="matrix(1 0 0 1 -659 -888 )">
    <path d="M 0.757366771159832 43.5288888888889  L 17.4194357366772 49.0622222222223  L 36.3536050156741 54.5955555555556  L 56.0451410658308 59.0222222222222  L 71.1924764890283 61.2355555555555  L 81.0382445141065 61.2355555555555  L 99.2150470219435 59.0222222222222  L 109.818181818182 56.8088888888889  L 124.965517241379 54.5955555555556  L 140.870219435737 53.12  L 149.201253918495 53.5  L 163.591222570533 53.5  L 177.223824451411 54.5955555555556  L 187.826959247649 56.8088888888889  L 200.702194357367 59.0222222222222  L 222.665830721003 66.0311111111111  L 237.813166144201 71.9333333333333  L 249.931034482759 75.6222222222222  L 259.776802507837 78.2044444444444  L 277.196238244514 81.5244444444444  L 289.314106583072 83.5  L 304.46144200627 83.5  L 337.785579937304 79.3111111111111  L 380.198119122257 71.9333333333333  L 418.066457680251 61.2355555555555  L 443.059561128527 53.12  L 456.692163009404 49.0622222222223  L 475.626332288401 45.0044444444444  L 491.531034482759 43.5288888888889  L 508.950470219436 42.0533333333334  L 524.097805642633 39.1022222222222  L 541.51724137931 32.0933333333333  L 556.664576802508 22.8711111111111  L 569.539811912226 14.3866666666667  L 582.415047021944 5.16444444444447  L 595.290282131661 0.737777777777736  L 602.579937304075 0.737777777777736  " stroke-width="1" stroke="#0dbdd3" fill="none" transform="matrix(1 0 0 1 659 888 )" />
  </g>
</svg>