<?xml version="1.0" encoding="utf-8"?>
<svg version="1.1" xmlns:xlink="http://www.w3.org/1999/xlink" width="192px" height="172px" xmlns="http://www.w3.org/2000/svg">
  <defs>
    <mask fill="white" id="clip1132">
      <path d="M 187 0.157798165137606  L 4.2 0.157798165137606  L 0.400000000000006 6.78532110091745  L 0.400000000000006 164.267889908257  L 4.2 170.895412844037  L 187 171.842201834862  L 191.6 164.267889908257  L 191.6 6.78532110091745  L 187 0.157798165137606  Z " fill-rule="evenodd" />
    </mask>
  </defs>
  <g transform="matrix(1 0 0 1 -3 -13 )">
    <path d="M 187 0.157798165137606  L 4.2 0.157798165137606  L 0.400000000000006 6.78532110091745  L 0.400000000000006 164.267889908257  L 4.2 170.895412844037  L 187 171.842201834862  L 191.6 164.267889908257  L 191.6 6.78532110091745  L 187 0.157798165137606  Z " fill-rule="nonzero" fill="#ffffff" stroke="none" fill-opacity="0" transform="matrix(1 0 0 1 3 13 )" />
    <path d="M 187 0.157798165137606  L 4.2 0.157798165137606  L 0.400000000000006 6.78532110091745  L 0.400000000000006 164.267889908257  L 4.2 170.895412844037  L 187 171.842201834862  L 191.6 164.267889908257  L 191.6 6.78532110091745  L 187 0.157798165137606  Z " stroke-width="2" stroke="#00ccff" fill="none" transform="matrix(1 0 0 1 3 13 )" mask="url(#clip1132)" />
  </g>
</svg>