<?xml version="1.0" encoding="utf-8"?>
<svg version="1.1" xmlns:xlink="http://www.w3.org/1999/xlink" width="32px" height="41px" xmlns="http://www.w3.org/2000/svg">
  <defs>
    <linearGradient gradientUnits="userSpaceOnUse" x1="0" y1="20.5" x2="32" y2="20.5" id="LinearGradient1168">
      <stop id="Stop1169" stop-color="#648326" offset="0" />
      <stop id="Stop1170" stop-color="#cbec5b" offset="0.16" />
      <stop id="Stop1171" stop-color="#648326" offset="0.5" />
      <stop id="Stop1172" stop-color="#cbec5b" offset="0.81" />
      <stop id="Stop1173" stop-color="#648326" offset="1" />
    </linearGradient>
    <linearGradient gradientUnits="userSpaceOnUse" x1="0" y1="20.5" x2="32" y2="20.5" id="LinearGradient1174">
      <stop id="Stop1175" stop-color="#648326" offset="0" />
      <stop id="Stop1176" stop-color="#cbec5b" offset="0.16" />
      <stop id="Stop1177" stop-color="#648326" offset="0.5" />
      <stop id="Stop1178" stop-color="#cbec5b" offset="0.81" />
      <stop id="Stop1179" stop-color="#648326" offset="1" />
    </linearGradient>
    <mask fill="white" id="clip1180">
      <path d="M 0 16.015625  C 0 7.046875  7.04 0  16 0  C 24.96 0  32 7.046875  32 16.015625  C 32 22.439016045833  28.3889163717662 27.8766043433688  23.0476559807714 30.4456462040237  C 22.0651442375243 30.918215150717  19.9807112391207 32.4161822944448  18.56 34.75390625  C 16.9201822920516 37.4521612036154  16 41  16 41  C 16 41  15.0218854908585 37.4629226871524  13.44 34.75390625  C 12.123934901459 32.5001135419226  10.2660643054835 31.0398693443624  9.35045176127056 30.6303678028434  C 3.79130232862699 28.1440756735027  0 22.5973509875205  0 16.015625  Z " fill-rule="evenodd" />
    </mask>
  </defs>
  <g transform="matrix(1 0 0 1 -847 -104 )">
    <path d="M 0 16.015625  C 0 7.046875  7.04 0  16 0  C 24.96 0  32 7.046875  32 16.015625  C 32 22.439016045833  28.3889163717662 27.8766043433688  23.0476559807714 30.4456462040237  C 22.0651442375243 30.918215150717  19.9807112391207 32.4161822944448  18.56 34.75390625  C 16.9201822920516 37.4521612036154  16 41  16 41  C 16 41  15.0218854908585 37.4629226871524  13.44 34.75390625  C 12.123934901459 32.5001135419226  10.2660643054835 31.0398693443624  9.35045176127056 30.6303678028434  C 3.79130232862699 28.1440756735027  0 22.5973509875205  0 16.015625  Z " fill-rule="nonzero" fill="url(#LinearGradient1168)" stroke="none" transform="matrix(1 0 0 1 847 104 )" />
    <path d="M 0 16.015625  C 0 7.046875  7.04 0  16 0  C 24.96 0  32 7.046875  32 16.015625  C 32 22.439016045833  28.3889163717662 27.8766043433688  23.0476559807714 30.4456462040237  C 22.0651442375243 30.918215150717  19.9807112391207 32.4161822944448  18.56 34.75390625  C 16.9201822920516 37.4521612036154  16 41  16 41  C 16 41  15.0218854908585 37.4629226871524  13.44 34.75390625  C 12.123934901459 32.5001135419226  10.2660643054835 31.0398693443624  9.35045176127056 30.6303678028434  C 3.79130232862699 28.1440756735027  0 22.5973509875205  0 16.015625  Z " stroke-width="2" stroke="url(#LinearGradient1174)" fill="none" transform="matrix(1 0 0 1 847 104 )" mask="url(#clip1180)" />
  </g>
</svg>