<?xml version="1.0" encoding="utf-8"?>
<svg version="1.1" xmlns:xlink="http://www.w3.org/1999/xlink" width="8px" height="13px" xmlns="http://www.w3.org/2000/svg">
  <g transform="matrix(1 0 0 1 -159 -191 )">
    <path d="M 7.81001283697047 6.07608695652174  C 7.93667094565683 6.30570652173913  8 6.57359601449275  8 6.87975543478261  C 8 7.18002717391304  7.93667094565683 7.44497282608696  7.81001283697047 7.67459239130435  L 7.42490372272144 8.33695652173913  C 7.29482242190843 8.5606884057971  7.13906718014549 8.67255434782609  6.95763799743261 8.67255434782609  C 6.77278562259307 8.67255434782609  6.61874197689345 8.5606884057971  6.49550706033376 8.33695652173913  L 4.98587933247754 5.74932065217391  L 4.98587933247754 11.9667119565217  C 4.98587933247754 12.2728713768116  4.9216944801027 12.5216259057971  4.79332477535302 12.7129755434783  C 4.66495507060334 12.9043251811594  4.51005562687206 13  4.32862644415918 13  L 3.67137355584082 13  C 3.48994437312794 13  3.33504492939666 12.9043251811594  3.20667522464698 12.7129755434783  C 3.0783055198973 12.5216259057971  3.01412066752246 12.2728713768116  3.01412066752246 11.9667119565217  L 3.01412066752246 5.74932065217391  L 1.50449293966624 8.33695652173913  C 1.38125802310655 8.5606884057971  1.22721437740693 8.67255434782609  1.04236200256739 8.67255434782609  C 0.857509627727856 8.67255434782609  0.703465982028241 8.5606884057971  0.580231065468549 8.33695652173913  L 0.195121951219512 7.67459239130435  C 0.0650406504065041 7.45086050724638  0 7.18591485507246  0 6.87975543478261  C 0 6.56770833333333  0.0650406504065041 6.29981884057971  0.195121951219512 6.07608695652174  L 3.53786906290116 0.326766304347826  C 3.65768078733419 0.108922101449275  3.8117244330338 0  4 0  C 4.18485237483954 0  4.34060761660248 0.108922101449275  4.46726572528883 0.326766304347826  L 7.81001283697047 6.07608695652174  Z " fill-rule="nonzero" fill="#d9001b" stroke="none" transform="matrix(1 0 0 1 159 191 )" />
  </g>
</svg>