<?xml version="1.0" encoding="utf-8"?>
<svg version="1.1" xmlns:xlink="http://www.w3.org/1999/xlink" width="637px" height="108px" xmlns="http://www.w3.org/2000/svg">
  <defs>
    <linearGradient gradientUnits="userSpaceOnUse" x1="0" y1="52" x2="633" y2="52" id="LinearGradient1181">
      <stop id="Stop1182" stop-color="#b307de" offset="0" />
      <stop id="Stop1183" stop-color="#d9001b" offset="0" />
      <stop id="Stop1184" stop-color="#ec808d" offset="0.74" />
      <stop id="Stop1185" stop-color="#f59a23" offset="1" />
    </linearGradient>
  </defs>
  <g transform="matrix(1 0 0 1 -667.5 -885.5 )">
    <path d="M 0.498425196850507 102.514285714286  C 0.498425196850507 102.514285714286  51.9813761285026 74.0679134274818  101.18031496063 82.0444444444445  C 123.078274524358 85.5947192636692  114.688148420388 102.918148736  134.574803149606 103.834920634921  C 162.233080552917 105.109963212025  154.900020223776 81.5457285935875  186.909448818898 78.0825396825396  C 233.497193469916 73.0420823002193  230.638217812656 102.692315599486  277.124409448819 97.5619047619046  C 358.730962770828 88.5554636910213  326.602598652547 46.2733133156533  410.203937007874 31.2000000000001  C 436.641001471997 26.4333998037192  436.02575311215 39.861239181604  462.538582677165 35.1619047619047  C 506.843268350295 27.3090072117909  496.764772118447 -1.78509712156835  533.314960629921 0.49523809523802  C 574.469023839627 3.06280514410058  556.713550027295 43.1146862091859  600.602362204724 48.6984126984127  C 616.496839820464 50.7205776031413  633 38.463492063492  633 38.463492063492  " stroke-width="3" stroke="url(#LinearGradient1181)" fill="none" transform="matrix(1 0 0 1 669 887 )" />
  </g>
</svg>