<?xml version="1.0" standalone="no"?><!DOCTYPE svg PUBLIC "-//W3C//DTD SVG 1.1//EN" "http://www.w3.org/Graphics/SVG/1.1/DTD/svg11.dtd"><svg t="1755140423996" class="icon" viewBox="0 0 1024 1024" version="1.1" xmlns="http://www.w3.org/2000/svg" p-id="7603" xmlns:xlink="http://www.w3.org/1999/xlink" width="200" height="200"><path d="M954.844372 512.32512c0-244.246027-198.264195-442.103822-442.749545-442.103823s-442.62311 197.9752-442.623111 442.103823 198.142275 442.112853 442.623111 442.112853 442.749546-197.857795 442.749545-442.112853z" fill="#071B20" p-id="7604"></path><path d="M1022.875628 504.626109c-4.063994-272.919761-222.819748-493.960383-495.102817-502.160619h-31.355969C226.134161 10.607024 8.579542 228.486762 1.44046 498.611398V526.061419c7.279064 275.34461 233.155839 496.389748 510.654367 496.389748 279.512462 0 506.644559-224.26924 510.780801-502.404459z m-953.403912 7.676433c0-244.128623 198.142275-442.103822 442.623111-442.103823s442.749546 197.857795 442.749545 442.103823-198.264195 442.112853-442.749545 442.112853-442.62311-197.957138-442.623111-442.090275z" fill="#1ECFD9" p-id="7605"></path><path d="M707.008484 278.076517H316.950876a55.279347 55.279347 0 0 0-55.279347 55.283863v260.045931a55.279347 55.279347 0 0 0 55.279347 55.283862h139.223396v61.212778h-38.14284a18.427954 18.427954 0 1 0 0 36.855908h187.869402a18.427954 18.427954 0 0 0 0-36.855908h-38.147355v-61.212778h139.255005a55.283862 55.283862 0 0 0 55.283862-55.283862V333.36038a55.283862 55.283862 0 0 0-55.283862-55.283863z m18.427954 269.447304H298.527437V333.36038a18.427954 18.427954 0 0 1 18.423439-18.427954h390.057608a18.43247 18.43247 0 0 1 18.427954 18.427954z m0 0" fill="#1ECFD9" p-id="7606"></path></svg>