<?xml version="1.0" encoding="utf-8"?>
<svg version="1.1" xmlns:xlink="http://www.w3.org/1999/xlink" width="303px" height="172px" xmlns="http://www.w3.org/2000/svg">
  <defs>
    <mask fill="white" id="clip822">
      <path d="M 295.109375 0.157798165137606  L 6.62812500000001 0.157798165137606  L 0.631250000000009 6.78532110091745  L 0.631250000000009 164.267889908257  L 6.62812500000001 170.895412844037  L 295.109375 171.842201834862  L 302.36875 164.267889908257  L 302.36875 6.78532110091745  L 295.109375 0.157798165137606  Z " fill-rule="evenodd" />
    </mask>
  </defs>
  <g transform="matrix(1 0 0 1 -7 -12 )">
    <path d="M 295.109375 0.157798165137606  L 6.62812500000001 0.157798165137606  L 0.631250000000009 6.78532110091745  L 0.631250000000009 164.267889908257  L 6.62812500000001 170.895412844037  L 295.109375 171.842201834862  L 302.36875 164.267889908257  L 302.36875 6.78532110091745  L 295.109375 0.157798165137606  Z " fill-rule="nonzero" fill="#ffffff" stroke="none" fill-opacity="0" transform="matrix(1 0 0 1 7 12 )" />
    <path d="M 295.109375 0.157798165137606  L 6.62812500000001 0.157798165137606  L 0.631250000000009 6.78532110091745  L 0.631250000000009 164.267889908257  L 6.62812500000001 170.895412844037  L 295.109375 171.842201834862  L 302.36875 164.267889908257  L 302.36875 6.78532110091745  L 295.109375 0.157798165137606  Z " stroke-width="2" stroke="#00ccff" fill="none" transform="matrix(1 0 0 1 7 12 )" mask="url(#clip822)" />
  </g>
</svg>