<?xml version="1.0" encoding="utf-8"?>
<svg version="1.1" xmlns:xlink="http://www.w3.org/1999/xlink" width="229px" height="230px" xmlns="http://www.w3.org/2000/svg">
  <defs>
    <mask fill="white" id="clip729">
      <path d="M 186.62012987013 223.859223300971  C 186.62012987013 222.506856745954  187.037534796254 221.268454990371  187.752971670836 220.263538968308  L 187.669891822814 220.195355264963  C 205.428102632208 198.437214437722  215.977155494804 170.458967404013  215.977155494804 139.602226528177  C 215.977155494804 68.7215227122705  160.313797266882 13.0295411426299  89.4695231586172 13.0295411426299  C 59.1659189593989 13.0295411426299  31.6399616454145 23.2194835913409  10.0600171076022 40.4293739824597  L 9.99340589910361 40.3461842102832  C 8.94569883559781 41.1855770162596  7.60754774838859 41.6828478964401  6.13392857142857 41.6828478964401  C 2.69892857142857 41.6828478964401  0 38.9809061488672  0 35.542071197411  C 0 33.5712173784067  0.886497577305624 31.8424055485426  2.28998927720141 30.7255505660867  L 2.23051948051948 30.6512799948346  C 26.983179409822 10.8109862561924  57.7531723734689 0  89.4695231586172 0  C 166.530077654732 0  229 62.5020457742408  229 139.602226528177  C 229 171.888487294917  217.814883968394 203.17664907067  197.349183786011 228.139158576052  L 197.258227600354 228.064510881098  C 196.145218172728 229.261178412197  194.550274351958 230  192.754058441558 230  C 189.319058441559 230  186.62012987013 227.298058252427  186.62012987013 223.859223300971  Z " fill-rule="evenodd" />
    </mask>
  </defs>
  <g transform="matrix(1 0 0 1 -177 -790 )">
    <path d="M 186.62012987013 223.859223300971  C 186.62012987013 222.506856745954  187.037534796254 221.268454990371  187.752971670836 220.263538968308  L 187.669891822814 220.195355264963  C 205.428102632208 198.437214437722  215.977155494804 170.458967404013  215.977155494804 139.602226528177  C 215.977155494804 68.7215227122705  160.313797266882 13.0295411426299  89.4695231586172 13.0295411426299  C 59.1659189593989 13.0295411426299  31.6399616454145 23.2194835913409  10.0600171076022 40.4293739824597  L 9.99340589910361 40.3461842102832  C 8.94569883559781 41.1855770162596  7.60754774838859 41.6828478964401  6.13392857142857 41.6828478964401  C 2.69892857142857 41.6828478964401  0 38.9809061488672  0 35.542071197411  C 0 33.5712173784067  0.886497577305624 31.8424055485426  2.28998927720141 30.7255505660867  L 2.23051948051948 30.6512799948346  C 26.983179409822 10.8109862561924  57.7531723734689 0  89.4695231586172 0  C 166.530077654732 0  229 62.5020457742408  229 139.602226528177  C 229 171.888487294917  217.814883968394 203.17664907067  197.349183786011 228.139158576052  L 197.258227600354 228.064510881098  C 196.145218172728 229.261178412197  194.550274351958 230  192.754058441558 230  C 189.319058441559 230  186.62012987013 227.298058252427  186.62012987013 223.859223300971  Z " fill-rule="nonzero" fill="#0c3033" stroke="none" transform="matrix(1 0 0 1 177 790 )" />
    <path d="M 186.62012987013 223.859223300971  C 186.62012987013 222.506856745954  187.037534796254 221.268454990371  187.752971670836 220.263538968308  L 187.669891822814 220.195355264963  C 205.428102632208 198.437214437722  215.977155494804 170.458967404013  215.977155494804 139.602226528177  C 215.977155494804 68.7215227122705  160.313797266882 13.0295411426299  89.4695231586172 13.0295411426299  C 59.1659189593989 13.0295411426299  31.6399616454145 23.2194835913409  10.0600171076022 40.4293739824597  L 9.99340589910361 40.3461842102832  C 8.94569883559781 41.1855770162596  7.60754774838859 41.6828478964401  6.13392857142857 41.6828478964401  C 2.69892857142857 41.6828478964401  0 38.9809061488672  0 35.542071197411  C 0 33.5712173784067  0.886497577305624 31.8424055485426  2.28998927720141 30.7255505660867  L 2.23051948051948 30.6512799948346  C 26.983179409822 10.8109862561924  57.7531723734689 0  89.4695231586172 0  C 166.530077654732 0  229 62.5020457742408  229 139.602226528177  C 229 171.888487294917  217.814883968394 203.17664907067  197.349183786011 228.139158576052  L 197.258227600354 228.064510881098  C 196.145218172728 229.261178412197  194.550274351958 230  192.754058441558 230  C 189.319058441559 230  186.62012987013 227.298058252427  186.62012987013 223.859223300971  Z " stroke-width="2" stroke="#0c3033" fill="none" transform="matrix(1 0 0 1 177 790 )" mask="url(#clip729)" />
  </g>
</svg>