<?xml version="1.0" encoding="utf-8"?>
<svg version="1.1" xmlns:xlink="http://www.w3.org/1999/xlink" width="231px" height="230px" xmlns="http://www.w3.org/2000/svg">
  <defs>
    <mask fill="white" id="clip730">
      <path d="M 220.770492181716 188.188381479588  L 220.852646086461 188.287421233613  C 221.921559081484 187.374258376914  223.317552012748 186.828478964401  224.86231884058 186.828478964401  C 228.299420289855 186.828478964401  231 189.530420711974  231 192.96925566343  C 231 194.933637209906  230.118776586585 196.657563885893  228.72242412996 197.774747413748  L 228.768115942029 197.829830685781  C 203.711356300572 218.620645583372  172.177730948162 230  139.620522015628 230  C 62.5102369429822 230  0 167.480553903861  0 90.35890876509  C 0 58.2567939187467  11.0590856408286 27.1349658467669  31.3153797580637 2.23300970873786  L 31.4284258891174 2.32499388312413  C 32.5438018024888 0.901164492393191  34.283134751462 0  36.268115942029 0  C 39.7052173913044 0  42.4057971014493 2.7019417475729  42.4057971014493 6.14077669902913  C 42.4057971014493 7.66304076004663  41.8766038165057 9.04090658917677  40.9885851990885 10.1039189764882  L 41.0337438107081 10.1406637077858  C 23.4592516669185 31.8476608138823  13.0312487214586 59.6810748954337  13.0312487214586 90.35890876509  C 13.0312487214586 161.259345488095  68.7305289708932 216.966831484742  139.620522015628 216.966831484742  C 170.740167858166 216.966831484742  198.932443975835 206.231561181585  220.770492181716 188.188381479588  Z " fill-rule="evenodd" />
    </mask>
  </defs>
  <g transform="matrix(1 0 0 1 -127 -839 )">
    <path d="M 220.770492181716 188.188381479588  L 220.852646086461 188.287421233613  C 221.921559081484 187.374258376914  223.317552012748 186.828478964401  224.86231884058 186.828478964401  C 228.299420289855 186.828478964401  231 189.530420711974  231 192.96925566343  C 231 194.933637209906  230.118776586585 196.657563885893  228.72242412996 197.774747413748  L 228.768115942029 197.829830685781  C 203.711356300572 218.620645583372  172.177730948162 230  139.620522015628 230  C 62.5102369429822 230  0 167.480553903861  0 90.35890876509  C 0 58.2567939187467  11.0590856408286 27.1349658467669  31.3153797580637 2.23300970873786  L 31.4284258891174 2.32499388312413  C 32.5438018024888 0.901164492393191  34.283134751462 0  36.268115942029 0  C 39.7052173913044 0  42.4057971014493 2.7019417475729  42.4057971014493 6.14077669902913  C 42.4057971014493 7.66304076004663  41.8766038165057 9.04090658917677  40.9885851990885 10.1039189764882  L 41.0337438107081 10.1406637077858  C 23.4592516669185 31.8476608138823  13.0312487214586 59.6810748954337  13.0312487214586 90.35890876509  C 13.0312487214586 161.259345488095  68.7305289708932 216.966831484742  139.620522015628 216.966831484742  C 170.740167858166 216.966831484742  198.932443975835 206.231561181585  220.770492181716 188.188381479588  Z " fill-rule="nonzero" fill="#0c3033" stroke="none" transform="matrix(1 0 0 1 127 839 )" />
    <path d="M 220.770492181716 188.188381479588  L 220.852646086461 188.287421233613  C 221.921559081484 187.374258376914  223.317552012748 186.828478964401  224.86231884058 186.828478964401  C 228.299420289855 186.828478964401  231 189.530420711974  231 192.96925566343  C 231 194.933637209906  230.118776586585 196.657563885893  228.72242412996 197.774747413748  L 228.768115942029 197.829830685781  C 203.711356300572 218.620645583372  172.177730948162 230  139.620522015628 230  C 62.5102369429822 230  0 167.480553903861  0 90.35890876509  C 0 58.2567939187467  11.0590856408286 27.1349658467669  31.3153797580637 2.23300970873786  L 31.4284258891174 2.32499388312413  C 32.5438018024888 0.901164492393191  34.283134751462 0  36.268115942029 0  C 39.7052173913044 0  42.4057971014493 2.7019417475729  42.4057971014493 6.14077669902913  C 42.4057971014493 7.66304076004663  41.8766038165057 9.04090658917677  40.9885851990885 10.1039189764882  L 41.0337438107081 10.1406637077858  C 23.4592516669185 31.8476608138823  13.0312487214586 59.6810748954337  13.0312487214586 90.35890876509  C 13.0312487214586 161.259345488095  68.7305289708932 216.966831484742  139.620522015628 216.966831484742  C 170.740167858166 216.966831484742  198.932443975835 206.231561181585  220.770492181716 188.188381479588  Z " stroke-width="2" stroke="#092622" fill="none" transform="matrix(1 0 0 1 127 839 )" mask="url(#clip730)" />
  </g>
</svg>