<?xml version="1.0" encoding="utf-8"?>
<svg version="1.1" xmlns:xlink="http://www.w3.org/1999/xlink" width="149px" height="149px" xmlns="http://www.w3.org/2000/svg">
  <g transform="matrix(1 0 0 1 -192 -854 )">
    <path d="M 149 74.5  C 149 116.22  116.22 149  74.5 149  C 32.78 149  0 116.22  0 74.5  C 0 32.78  32.78 0  74.5 0  C 116.22 0  149 32.78  149 74.5  Z M 5.5875 74.5  C 5.5875 113.091  35.909 143.4125  74.5 143.4125  C 113.091 143.4125  143.4125 113.091  143.4125 74.5  C 143.4125 35.909  113.091 5.5875  74.5 5.5875  C 35.909 5.5875  5.5875 35.909  5.5875 74.5  Z " fill-rule="nonzero" fill="#185055" stroke="none" transform="matrix(1 0 0 1 192 854 )" />
  </g>
</svg>