<?xml version="1.0" encoding="utf-8"?>
<svg version="1.1" xmlns:xlink="http://www.w3.org/1999/xlink" width="158px" height="186px" xmlns="http://www.w3.org/2000/svg">
  <defs>
    <mask fill="white" id="clip731">
      <path d="M 158 93.0000344588471  C 158 144.287120017707  116.576986222536 185.877775743275  65.5023661373264 185.999799681878  C 65.4890826889767 185.999978985819  65.4757742286723 186.000068917694  65.4345300647629 185.999937394405  C 65.3820286468511 186.0000250651  65.329517048821 186.000068917694  65.2769947492618 185.994222420455  C 63.8086474154685 185.901229892392  62.6807511737089 184.709912443499  62.6807511737089 183.210067883929  C 62.6807511737089 181.710223324359  63.8086474154685 180.518905875465  65.2769953051643 180.420066850163  C 114.053147130566 180.420066850163  152.432408842555 141.955252597984  152.432408842555 93.0000344588471  C 152.432408842555 44.04481631971  114.053147130566 5.58000206753082  65.2068140425811 5.58000206753082  C 41.3414679332053 5.58000206753082  19.9747217723707 14.7619575027002  4.36195393743375 29.8632360225286  L 4.34156583189703 29.8420792132065  C 3.88345321787229 30.2552710260425  3.2736667645116 30.5040113025018  2.5962441314554 30.5040113025018  C 1.14234741784035 30.5040113025018  0 29.3582508779689  0 27.9000103376541  C 0 27.0014497029216  0.433745164128313 26.2215366328352  1.10685575710027 25.7552316078681  C 18.3665407617433 9.22907589935487  41.3234135074432 0  65.2068140425811 0  C 116.455075535077 0  158 41.6375336934876  158 93.0000344588471  Z " fill-rule="evenodd" />
    </mask>
  </defs>
  <g transform="matrix(1 0 0 1 -201 -835 )">
    <path d="M 158 93.0000344588471  C 158 144.287120017707  116.576986222536 185.877775743275  65.5023661373264 185.999799681878  C 65.4890826889767 185.999978985819  65.4757742286723 186.000068917694  65.4345300647629 185.999937394405  C 65.3820286468511 186.0000250651  65.329517048821 186.000068917694  65.2769947492618 185.994222420455  C 63.8086474154685 185.901229892392  62.6807511737089 184.709912443499  62.6807511737089 183.210067883929  C 62.6807511737089 181.710223324359  63.8086474154685 180.518905875465  65.2769953051643 180.420066850163  C 114.053147130566 180.420066850163  152.432408842555 141.955252597984  152.432408842555 93.0000344588471  C 152.432408842555 44.04481631971  114.053147130566 5.58000206753082  65.2068140425811 5.58000206753082  C 41.3414679332053 5.58000206753082  19.9747217723707 14.7619575027002  4.36195393743375 29.8632360225286  L 4.34156583189703 29.8420792132065  C 3.88345321787229 30.2552710260425  3.2736667645116 30.5040113025018  2.5962441314554 30.5040113025018  C 1.14234741784035 30.5040113025018  0 29.3582508779689  0 27.9000103376541  C 0 27.0014497029216  0.433745164128313 26.2215366328352  1.10685575710027 25.7552316078681  C 18.3665407617433 9.22907589935487  41.3234135074432 0  65.2068140425811 0  C 116.455075535077 0  158 41.6375336934876  158 93.0000344588471  Z " fill-rule="nonzero" fill="#0f4547" stroke="none" transform="matrix(1 0 0 1 201 835 )" />
    <path d="M 158 93.0000344588471  C 158 144.287120017707  116.576986222536 185.877775743275  65.5023661373264 185.999799681878  C 65.4890826889767 185.999978985819  65.4757742286723 186.000068917694  65.4345300647629 185.999937394405  C 65.3820286468511 186.0000250651  65.329517048821 186.000068917694  65.2769947492618 185.994222420455  C 63.8086474154685 185.901229892392  62.6807511737089 184.709912443499  62.6807511737089 183.210067883929  C 62.6807511737089 181.710223324359  63.8086474154685 180.518905875465  65.2769953051643 180.420066850163  C 114.053147130566 180.420066850163  152.432408842555 141.955252597984  152.432408842555 93.0000344588471  C 152.432408842555 44.04481631971  114.053147130566 5.58000206753082  65.2068140425811 5.58000206753082  C 41.3414679332053 5.58000206753082  19.9747217723707 14.7619575027002  4.36195393743375 29.8632360225286  L 4.34156583189703 29.8420792132065  C 3.88345321787229 30.2552710260425  3.2736667645116 30.5040113025018  2.5962441314554 30.5040113025018  C 1.14234741784035 30.5040113025018  0 29.3582508779689  0 27.9000103376541  C 0 27.0014497029216  0.433745164128313 26.2215366328352  1.10685575710027 25.7552316078681  C 18.3665407617433 9.22907589935487  41.3234135074432 0  65.2068140425811 0  C 116.455075535077 0  158 41.6375336934876  158 93.0000344588471  Z " stroke-width="2" stroke="#0f4547" fill="none" transform="matrix(1 0 0 1 201 835 )" mask="url(#clip731)" />
  </g>
</svg>