<?xml version="1.0" encoding="utf-8"?>
<svg version="1.1" xmlns:xlink="http://www.w3.org/1999/xlink" width="37px" height="130px" xmlns="http://www.w3.org/2000/svg">
  <defs>
    <mask fill="white" id="clip977">
      <path d="M 5.56564183314481 58.2141316159116  C 5.56564183314481 85.689235242192  17.5097617913319 109.879323775939  36.5511913046835 125.896622745856  C 36.5774473796037 125.918708871348  36.6037169489449 125.940779457562  36.63 125.962834491684  L 36.6097490172608 125.98727746471  C 36.8577301105693 126.389422418151  37 126.8676526728  37 127.385057471264  C 37 128.849425287356  35.8604 130  34.41 130  C 34.0646301022208 130  33.7368829833241 129.934760863099  33.4379490134167 129.815580396662  L 33.285154930625 130  C 12.1911083449503 112.226676762505  0 85.9341958973624  0 58.2141316159116  C 0 37.3963647235976  6.8860014288829 17.1734103118519  19.567758089158 0.747126436781609  L 19.6041005793277 0.775660272721905  C 20.0714960959065 0.294712413087196  20.7259433238528 0  21.46 0  C 22.9104 0  24.05 1.15057471264365  24.05 2.61494252873563  C 24.05 3.11708657699305  23.9159987872622 3.58233289235223  23.6897563440064 3.98349027428147  C 23.6675071365993 4.01247450593455  23.6452757416579 4.04147364401715  23.6230621743993 4.07048767318361  C 12.2631652331213 18.90810368254  5.56564183314481 37.6401010515804  5.56564183314481 58.2141316159116  Z " fill-rule="evenodd" />
    </mask>
  </defs>
  <g transform="matrix(1 0 0 1 -174 -870 )">
    <path d="M 5.56564183314481 58.2141316159116  C 5.56564183314481 85.689235242192  17.5097617913319 109.879323775939  36.5511913046835 125.896622745856  C 36.5774473796037 125.918708871348  36.6037169489449 125.940779457562  36.63 125.962834491684  L 36.6097490172608 125.98727746471  C 36.8577301105693 126.389422418151  37 126.8676526728  37 127.385057471264  C 37 128.849425287356  35.8604 130  34.41 130  C 34.0646301022208 130  33.7368829833241 129.934760863099  33.4379490134167 129.815580396662  L 33.285154930625 130  C 12.1911083449503 112.226676762505  0 85.9341958973624  0 58.2141316159116  C 0 37.3963647235976  6.8860014288829 17.1734103118519  19.567758089158 0.747126436781609  L 19.6041005793277 0.775660272721905  C 20.0714960959065 0.294712413087196  20.7259433238528 0  21.46 0  C 22.9104 0  24.05 1.15057471264365  24.05 2.61494252873563  C 24.05 3.11708657699305  23.9159987872622 3.58233289235223  23.6897563440064 3.98349027428147  C 23.6675071365993 4.01247450593455  23.6452757416579 4.04147364401715  23.6230621743993 4.07048767318361  C 12.2631652331213 18.90810368254  5.56564183314481 37.6401010515804  5.56564183314481 58.2141316159116  Z " fill-rule="nonzero" fill="#062c31" stroke="none" transform="matrix(1 0 0 1 174 870 )" />
    <path d="M 5.56564183314481 58.2141316159116  C 5.56564183314481 85.689235242192  17.5097617913319 109.879323775939  36.5511913046835 125.896622745856  C 36.5774473796037 125.918708871348  36.6037169489449 125.940779457562  36.63 125.962834491684  L 36.6097490172608 125.98727746471  C 36.8577301105693 126.389422418151  37 126.8676526728  37 127.385057471264  C 37 128.849425287356  35.8604 130  34.41 130  C 34.0646301022208 130  33.7368829833241 129.934760863099  33.4379490134167 129.815580396662  L 33.285154930625 130  C 12.1911083449503 112.226676762505  0 85.9341958973624  0 58.2141316159116  C 0 37.3963647235976  6.8860014288829 17.1734103118519  19.567758089158 0.747126436781609  L 19.6041005793277 0.775660272721905  C 20.0714960959065 0.294712413087196  20.7259433238528 0  21.46 0  C 22.9104 0  24.05 1.15057471264365  24.05 2.61494252873563  C 24.05 3.11708657699305  23.9159987872622 3.58233289235223  23.6897563440064 3.98349027428147  C 23.6675071365993 4.01247450593455  23.6452757416579 4.04147364401715  23.6230621743993 4.07048767318361  C 12.2631652331213 18.90810368254  5.56564183314481 37.6401010515804  5.56564183314481 58.2141316159116  Z " stroke-width="2" stroke="#062c31" fill="none" transform="matrix(1 0 0 1 174 870 )" mask="url(#clip977)" />
  </g>
</svg>