<?xml version="1.0" encoding="utf-8"?>
<svg version="1.1" xmlns:xlink="http://www.w3.org/1999/xlink" width="42px" height="19px" xmlns="http://www.w3.org/2000/svg">
  <defs>
    <mask fill="white" id="clip978">
      <path d="M 39.2168078991861 13.269262322933  C 39.4009813663822 13.294141106532  39.5853497847632 13.3184596510546  39.7675818525266 13.3544174157242  C 41.0546692577407 13.6113021733323  42 14.748857248768  42 16.15  C 42 17.7459999999999  40.7734513274336 19  39.212389380531 19  C 39.1533173977487 19  39.0947244157 18.9982043555038  39.0366587698969 18.994662483818  C 38.9241925295199 18.987802300195  38.8137045950892 18.9743911319537  38.7055457640096 18.9547897051027  C 25.3369941589113 17.1009687617301  12.5155921511557 12.3302489038315  1.11504424778761 4.96597643204335  L 1.16337771294123 4.88811773667134  C 0.458027384132758 4.41673760564396  0 3.60222495825924  0 2.66  C 0 1.17039999999997  1.14477876106192 0  2.60176991150442 0  C 3.10320537491258 0  3.56766088178195 0.138627878345369  3.96193461453762 0.38  C 14.3800321756406 7.03814742274711  26.3204794348343 11.5271820441041  39.2168078991861 13.269262322933  Z " fill-rule="evenodd" />
    </mask>
  </defs>
  <g transform="matrix(1 0 0 1 -215 -1002 )">
    <path d="M 39.2168078991861 13.269262322933  C 39.4009813663822 13.294141106532  39.5853497847632 13.3184596510546  39.7675818525266 13.3544174157242  C 41.0546692577407 13.6113021733323  42 14.748857248768  42 16.15  C 42 17.7459999999999  40.7734513274336 19  39.212389380531 19  C 39.1533173977487 19  39.0947244157 18.9982043555038  39.0366587698969 18.994662483818  C 38.9241925295199 18.987802300195  38.8137045950892 18.9743911319537  38.7055457640096 18.9547897051027  C 25.3369941589113 17.1009687617301  12.5155921511557 12.3302489038315  1.11504424778761 4.96597643204335  L 1.16337771294123 4.88811773667134  C 0.458027384132758 4.41673760564396  0 3.60222495825924  0 2.66  C 0 1.17039999999997  1.14477876106192 0  2.60176991150442 0  C 3.10320537491258 0  3.56766088178195 0.138627878345369  3.96193461453762 0.38  C 14.3800321756406 7.03814742274711  26.3204794348343 11.5271820441041  39.2168078991861 13.269262322933  Z " fill-rule="nonzero" fill="#073c3d" stroke="none" transform="matrix(1 0 0 1 215 1002 )" />
    <path d="M 39.2168078991861 13.269262322933  C 39.4009813663822 13.294141106532  39.5853497847632 13.3184596510546  39.7675818525266 13.3544174157242  C 41.0546692577407 13.6113021733323  42 14.748857248768  42 16.15  C 42 17.7459999999999  40.7734513274336 19  39.212389380531 19  C 39.1533173977487 19  39.0947244157 18.9982043555038  39.0366587698969 18.994662483818  C 38.9241925295199 18.987802300195  38.8137045950892 18.9743911319537  38.7055457640096 18.9547897051027  C 25.3369941589113 17.1009687617301  12.5155921511557 12.3302489038315  1.11504424778761 4.96597643204335  L 1.16337771294123 4.88811773667134  C 0.458027384132758 4.41673760564396  0 3.60222495825924  0 2.66  C 0 1.17039999999997  1.14477876106192 0  2.60176991150442 0  C 3.10320537491258 0  3.56766088178195 0.138627878345369  3.96193461453762 0.38  C 14.3800321756406 7.03814742274711  26.3204794348343 11.5271820441041  39.2168078991861 13.269262322933  Z " stroke-width="2" stroke="#073c3d" fill="none" transform="matrix(1 0 0 1 215 1002 )" mask="url(#clip978)" />
  </g>
</svg>