<?xml version="1.0" encoding="utf-8"?>
<svg version="1.1" xmlns:xlink="http://www.w3.org/1999/xlink" width="111px" height="111px" xmlns="http://www.w3.org/2000/svg">
  <defs>
    <filter x="211px" y="874px" width="111px" height="111px" filterUnits="userSpaceOnUse" id="filter736">
      <feOffset dx="0" dy="0" in="SourceAlpha" result="shadowOffsetInner" />
      <feGaussianBlur stdDeviation="5" in="shadowOffsetInner" result="shadowGaussian" />
      <feComposite in2="shadowGaussian" operator="atop" in="SourceAlpha" result="shadowComposite" />
      <feColorMatrix type="matrix" values="0 0 0 0 0.4  0 0 0 0 1  0 0 0 0 1  0 0 0 0.349019607843137 0  " in="shadowComposite" />
    </filter>
    <g id="widget737">
      <path d="M 266.5 885  C 291.42 885  311 904.58  311 929.5  C 311 954.42  291.42 974  266.5 974  C 241.58 974  222 954.42  222 929.5  C 222 904.58  241.58 885  266.5 885  Z " fill-rule="nonzero" fill="#ffffff" stroke="none" fill-opacity="0" />
      <path d="M 266.5 885  C 291.42 885  311 904.58  311 929.5  C 311 954.42  291.42 974  266.5 974  C 241.58 974  222 954.42  222 929.5  C 222 904.58  241.58 885  266.5 885  Z " stroke-width="2" stroke="#25aaa0" fill="none" />
    </g>
  </defs>
  <g transform="matrix(1 0 0 1 -211 -874 )">
    <use xlink:href="#widget737" filter="url(#filter736)" />
    <use xlink:href="#widget737" />
  </g>
</svg>