<?xml version="1.0" encoding="utf-8"?>
<svg version="1.1" xmlns:xlink="http://www.w3.org/1999/xlink" width="90px" height="90px" xmlns="http://www.w3.org/2000/svg">
  <defs>
    <mask fill="white" id="clip738">
      <path d="M 44.6966292134831 0  L 32.6629213483146 1.61797752808979  L 18.1011235955056 8.59550561797739  L 5.46067415730338 22.5505617977527  L 0 38.7303370786516  L 1.21348314606741 57.8426966292135  L 7.98876404494373 72.1011235955056  L 17.7977528089887 82.0112359550562  L 36.9101123595505 90  L 52.5842696629213 90  L 64.0112359550562 86.6629213483146  L 76.6516853932584 77.8651685393258  L 85.1460674157303 66.5393258426966  L 90 49.5505617977527  L 88.3820224719101 32.1573033707865  L 83.3258426966292 20.9325842696629  L 75.5393258426967 11.7303370786516  L 67.2471910112359 5.86516853932572  L 57.1348314606741 1.61797752808979  L 44.6966292134831 0  Z " fill-rule="evenodd" />
    </mask>
  </defs>
  <g transform="matrix(1 0 0 1 -222 -884 )">
    <path d="M 44.6966292134831 0  L 32.6629213483146 1.61797752808979  L 18.1011235955056 8.59550561797739  L 5.46067415730338 22.5505617977527  L 0 38.7303370786516  L 1.21348314606741 57.8426966292135  L 7.98876404494373 72.1011235955056  L 17.7977528089887 82.0112359550562  L 36.9101123595505 90  L 52.5842696629213 90  L 64.0112359550562 86.6629213483146  L 76.6516853932584 77.8651685393258  L 85.1460674157303 66.5393258426966  L 90 49.5505617977527  L 88.3820224719101 32.1573033707865  L 83.3258426966292 20.9325842696629  L 75.5393258426967 11.7303370786516  L 67.2471910112359 5.86516853932572  L 57.1348314606741 1.61797752808979  L 44.6966292134831 0  Z " fill-rule="nonzero" fill="#ffffff" stroke="none" fill-opacity="0" transform="matrix(1 0 0 1 222 884 )" />
    <path d="M 44.6966292134831 0  L 32.6629213483146 1.61797752808979  L 18.1011235955056 8.59550561797739  L 5.46067415730338 22.5505617977527  L 0 38.7303370786516  L 1.21348314606741 57.8426966292135  L 7.98876404494373 72.1011235955056  L 17.7977528089887 82.0112359550562  L 36.9101123595505 90  L 52.5842696629213 90  L 64.0112359550562 86.6629213483146  L 76.6516853932584 77.8651685393258  L 85.1460674157303 66.5393258426966  L 90 49.5505617977527  L 88.3820224719101 32.1573033707865  L 83.3258426966292 20.9325842696629  L 75.5393258426967 11.7303370786516  L 67.2471910112359 5.86516853932572  L 57.1348314606741 1.61797752808979  L 44.6966292134831 0  Z " stroke-width="4" stroke="#25aaa0" fill="none" transform="matrix(1 0 0 1 222 884 )" mask="url(#clip738)" />
  </g>
</svg>