<?xml version="1.0" encoding="utf-8"?>
<svg version="1.1" xmlns:xlink="http://www.w3.org/1999/xlink" width="3px" height="3px" xmlns="http://www.w3.org/2000/svg">
  <g transform="matrix(1 0 0 1 -252 -930 )">
    <path d="M 253.5 930  C 254.34 930  255 930.66  255 931.5  C 255 932.34  254.34 933  253.5 933  C 252.66 933  252 932.34  252 931.5  C 252 930.66  252.66 930  253.5 930  Z " fill-rule="nonzero" fill="#07fff1" stroke="none" />
    <path d="M 253.5 930.5  C 254.06 930.5  254.5 930.94  254.5 931.5  C 254.5 932.06  254.06 932.5  253.5 932.5  C 252.94 932.5  252.5 932.06  252.5 931.5  C 252.5 930.94  252.94 930.5  253.5 930.5  Z " stroke-width="1" stroke="#25aaa0" fill="none" />
  </g>
</svg>