<?xml version="1.0" encoding="utf-8"?>
<svg version="1.1" xmlns:xlink="http://www.w3.org/1999/xlink" width="170px" height="115px" xmlns="http://www.w3.org/2000/svg">
  <g transform="matrix(1 0 0 1 -10 -64 )">
    <path d="M 0 29.8506151142356  C 0 21.8390559069494  1.05576342200482 14.11593821614  3.0382825681595 6.81019332161713  C 3.0382825681595 6.81019332161713  8.65587477337181 21.7153745138871  19.2 23.8400702987701  C 44.7069668663319 28.9798560867062  41.641793856961 2.10879865491415  71.2 1  C 106.957882452376 -0.341363267239558  100.999436804717 26.7163040095752  136 23.8400702987701  C 154.000685997862 22.3608318192119  166.96171618199 6.81049521467639  166.96171618199 6.81049521467639  C 168.944236577995 14.11593821614  170 21.8390559069494  170 29.8506151142356  C 170 77.5342706502638  132.6 115  85 115  C 37.4 115  0 77.5342706502638  0 29.8506151142356  Z " fill-rule="nonzero" fill="#43c281" stroke="none" transform="matrix(1 0 0 1 10 64 )" />
  </g>
</svg>