<?xml version="1.0" encoding="utf-8"?>
<svg version="1.1" xmlns:xlink="http://www.w3.org/1999/xlink" width="637px" height="75px" xmlns="http://www.w3.org/2000/svg">
  <defs>
    <linearGradient gradientUnits="userSpaceOnUse" x1="0" y1="35.5" x2="633" y2="35.5" id="LinearGradient740">
      <stop id="Stop741" stop-color="#b307de" offset="0" />
      <stop id="Stop742" stop-color="#2936bf" offset="0.74" />
      <stop id="Stop743" stop-color="#2936bf" offset="1" />
    </linearGradient>
  </defs>
  <g transform="matrix(1 0 0 1 -645.5 -844.5 )">
    <path d="M 0.498425196850507 69.9857142857142  C 0.498425196850507 69.9857142857142  51.9813761285026 50.5655947437616  101.18031496063 56.0111111111112  C 123.078274524358 58.4348564203895  114.688148420388 70.2614284639999  134.574803149606 70.8873015873017  C 162.233080552917 71.7577633466707  154.900020223776 55.6706416360068  186.909448818898 53.3063492063492  C 233.497193469916 49.8652677241882  230.638217812656 70.1072539188799  277.124409448819 66.6047619047618  C 358.730962770828 60.4561338659857  326.602598652547 31.5904350520325  410.203937007874 21.3000000000001  C 436.641001471997 18.0458787121544  436.02575311215 27.2129613643643  462.538582677165 24.0047619047619  C 506.843268350295 18.6436491542034  496.764772118447 -1.2186720733784  533.314960629921 0.338095238095187  C 574.469023839627 2.09095351183789  556.713550027295 29.4340646235788  600.602362204724 33.2460317460317  C 616.496839820464 34.6265481713753  633 26.2587301587301  633 26.2587301587301  " stroke-width="3" stroke="url(#LinearGradient740)" fill="none" transform="matrix(1 0 0 1 647 846 )" />
  </g>
</svg>