<?xml version="1.0" encoding="utf-8"?>
<svg version="1.1" xmlns:xlink="http://www.w3.org/1999/xlink" width="632px" height="107px" xmlns="http://www.w3.org/2000/svg">
  <defs>
    <linearGradient gradientUnits="userSpaceOnUse" x1="0" y1="51.5" x2="628" y2="51.5" id="LinearGradient989">
      <stop id="Stop990" stop-color="#c1cb52" offset="0" />
      <stop id="Stop991" stop-color="#c1cb52" offset="0.02" />
      <stop id="Stop992" stop-color="#01d2e3" offset="0.74" />
      <stop id="Stop993" stop-color="#01d2e3" offset="1" />
    </linearGradient>
  </defs>
  <g transform="matrix(1 0 0 1 -645.5 -915.5 )">
    <path d="M 0 99.8975903614458  C 0 99.8975903614458  28.846064415062 107.018966353216  54.8253968253968 94.3132530120482  C 71.0288708693744 86.3886191884346  63.0663203632391 72.5723824601429  78.5 69.4939759036145  C 112.441463451441 62.7240010119352  110.919550795723 103.427586098527  147.654761904762 99.8975903614458  C 185.281198423191 96.2819541230322  177.00768604015 54.0587689341622  211.202380952381 55.8433734939759  C 232.660318890326 56.9632528783821  226.737886693707 86.6945903577414  247.960317460317 87.4879518072289  C 285.895470713654 88.9060875760566  275.50326007717 41.7138197458579  317.738095238095 35.9879518072289  C 351.497262872634 31.4111484443915  350.644895588351 67.546557060424  382.531746031746 60.8072289156627  C 412.479722998945 54.4776842523543  397.470106004198 27.7479518072291  428.634920634921 14.8915662650602  C 447.098228866109 7.27491871503564  447.260856588168 20.5782436343516  467.261904761905 14.8915662650602  C 481.316203168559 10.8956626506021  478.084891021943 -0.304862446527854  490.313492063492 0.620481927710843  C 528.735379975906 3.52788545707448  521.126127428951 58.1776926854716  555.107142857143 55.8433734939759  C 569.703215421308 54.840699151327  563.668080592817 31.1676775864631  579.404761904762 28.5421686746988  C 603.373802130651 24.5431724777213  628 55.8433734939759  628 55.8433734939759  " stroke-width="3" stroke="url(#LinearGradient989)" fill="none" transform="matrix(1 0 0 1 647 917 )" />
  </g>
</svg>