<?xml version="1.0" encoding="utf-8"?>
<svg version="1.1" xmlns:xlink="http://www.w3.org/1999/xlink" width="34px" height="39px" xmlns="http://www.w3.org/2000/svg">
  <defs>
    <mask fill="white" id="clip972">
      <path d="M 33.8048469387755 9.96319241982487  L 16.8193027210884 0.191873177842379  L 0.195153061224494 9.96319241982487  L 0.195153061224494 29.3281705539354  L 16.8193027210884 38.7441690962102  L 33.8048469387755 29.3281705539354  L 33.8048469387755 9.96319241982487  Z " fill-rule="evenodd" />
    </mask>
  </defs>
  <g transform="matrix(1 0 0 1 -1 -1 )">
    <path d="M 33.8048469387755 9.96319241982487  L 16.8193027210884 0.191873177842379  L 0.195153061224494 9.96319241982487  L 0.195153061224494 29.3281705539354  L 16.8193027210884 38.7441690962102  L 33.8048469387755 29.3281705539354  L 33.8048469387755 9.96319241982487  Z " fill-rule="nonzero" fill="#003366" stroke="none" transform="matrix(1 0 0 1 1 1 )" />
    <path d="M 33.8048469387755 9.96319241982487  L 16.8193027210884 0.191873177842379  L 0.195153061224494 9.96319241982487  L 0.195153061224494 29.3281705539354  L 16.8193027210884 38.7441690962102  L 33.8048469387755 29.3281705539354  L 33.8048469387755 9.96319241982487  Z " stroke-width="4" stroke="#184449" fill="none" transform="matrix(1 0 0 1 1 1 )" mask="url(#clip972)" />
  </g>
</svg>