<?xml version="1.0" encoding="utf-8"?>
<svg version="1.1" xmlns:xlink="http://www.w3.org/1999/xlink" width="25px" height="29px" xmlns="http://www.w3.org/2000/svg">
  <defs>
    <mask fill="white" id="clip973">
      <path d="M 24.8565051020409 7.31354657247516  L 12.3671343537414 0.140845761381745  L 0.143494897959135 7.31354657247516  L 0.143494897959135 21.5285354526426  L 12.3671343537414 28.4404107796968  L 24.8565051020409 21.5285354526426  L 24.8565051020409 7.31354657247516  Z " fill-rule="evenodd" />
    </mask>
  </defs>
  <g transform="matrix(1 0 0 1 -6 -6 )">
    <path d="M 24.8565051020409 7.31354657247516  L 12.3671343537414 0.140845761381745  L 0.143494897959135 7.31354657247516  L 0.143494897959135 21.5285354526426  L 12.3671343537414 28.4404107796968  L 24.8565051020409 21.5285354526426  L 24.8565051020409 7.31354657247516  Z " fill-rule="nonzero" fill="#003366" stroke="none" transform="matrix(1 0 0 1 6 6 )" />
    <path d="M 24.8565051020409 7.31354657247516  L 12.3671343537414 0.140845761381745  L 0.143494897959135 7.31354657247516  L 0.143494897959135 21.5285354526426  L 12.3671343537414 28.4404107796968  L 24.8565051020409 21.5285354526426  L 24.8565051020409 7.31354657247516  Z " stroke-width="2" stroke="#184449" fill="none" transform="matrix(1 0 0 1 6 6 )" mask="url(#clip973)" />
  </g>
</svg>